<?xml version="1.0" encoding="utf-8"?>
<!-- Generator: Adobe Illustrator 19.2.1, SVG Export Plug-In . SVG Version: 6.00 Build 0)  -->
<svg version="1.1" id="Layer_1" xmlns="http://www.w3.org/2000/svg" xmlns:xlink="http://www.w3.org/1999/xlink" x="0px" y="0px"
	 viewBox="0 0 612 792" style="enable-background:new 0 0 612 792;" xml:space="preserve">
<style type="text/css">
	.st0{fill:#E20E23;}
</style>
<path class="st0" d="M171.7,331.4c-2.1,8-4.2,16-6.5,24.9c-27.4-5-54.3-9.8-82.4-14.9c8.1-30.8,14.7-61.2,24.4-90.5
	c9.9-30,31.4-50.3,61.9-59.9c22.7-7.2,43.3-17.9,61-33.9c1.1-1,2.4-1.8,3.9-2.9c15.3,25,39.3,37.6,64.9,47.8
	c3.6,1.4,8.9,1.8,12.2,0.1c15.2-7.7,30.5-15.4,44.6-24.8c8.2-5.5,14.3-14.2,21.3-21.4c9.9,6.8,20.1,14.7,31.3,21.1
	c9,5.2,18.7,9.5,28.6,12.4c37.8,11.3,60.1,37.1,70.4,74c7,25,12.6,50.4,18.7,75.6c0.3,1.2,0.2,2.5,0.4,4.7
	c-27,4.2-53.8,8.3-81.1,12.5c-2.4-9.1-4.6-17.4-6.7-25.7c-0.6-0.1-1.2-0.2-1.8-0.3c-1.9,9.3-5.2,18.5-5.3,27.8
	c-0.4,42.6-0.2,85.2,0.5,127.8c0.8,51,2.2,102.1,3.5,153.1c0.1,5.2-2.3,7.8-6.6,8.7c-17.4,3.8-34.7,9.3-52.2,10.6
	c-34.5,2.5-69.3,3.5-103.9,3.2c-28.8-0.2-57.5-3.4-85.3-11.9c-11.8-3.6-12-3.7-11.7-15.5c1.3-66.4,3-132.7,4-199.1
	c0.4-27.5-0.3-55.1-1.1-82.6c-0.2-7.2-2.9-14.3-4.4-21.4C173.2,331.2,172.4,331.3,171.7,331.4z"/>
<path class="st0" d="M547.9,340.2c-4.6,0.7-8.6,1.3-13.3,2.1c-4.3-17.6-8.1-34.9-12.9-52c-5.3-18.5-9.8-37.6-17.7-55
	c-11.7-25.8-32.7-42.8-59.8-51.2c-24.3-7.6-45.9-19.5-64.2-37.2c-3.1-3-6.3-5.4-8.8,0.2c-7.3,16.6-20.7,27.2-36,35.2
	c-34.8,18-25.2,17.9-60.1-0.2c-15-7.8-28.2-18.4-35.3-34.7c-1.9-4.4-5.3-4.8-8.5-1.6c-19.9,20.2-44.7,31-70.9,40.5
	c-36.6,13.2-56.4,42.1-65.9,78.7c-5.9,22.9-11.3,45.9-17,68.9c-0.5,1.9-1.2,3.8-1.9,6.1c-4.1-0.7-7.7-1.4-12.2-2.2
	c2.7-11.8,5.2-23.1,7.9-34.4c4.3-17.8,7.8-35.9,13.2-53.3c12.4-40.3,40-66.6,79.6-79.1c28.8-9.1,53.1-24.3,73.5-46.1
	c3.2-3.4,6-3.8,10-1.9c38.7,17.7,77.4,17.4,116-0.2c4-1.8,6.5-0.9,9.3,2.1c20.5,21.7,44.7,36.9,73.5,46.1
	c43.5,13.9,71.5,43.8,82.5,88.6C535.4,285.8,541.3,312.3,547.9,340.2z M248.4,132.2c-0.5,0.5-0.9,1-1.4,1.5
	c3.1,5.6,5.5,11.8,9.3,16.8c11.7,15.5,28.4,24.4,45.9,31.7c1.9,0.8,4.7,0.6,6.6-0.2c15.4-6.4,29.9-14.1,41.5-26.5
	c5.9-6.3,10.8-13.2,12.2-23.3C323.9,148.1,286.1,148.1,248.4,132.2z"/>
<path class="st0" d="M61.7,345.2c34.3,6.3,67.8,12.4,101.2,18.4c-2.3,17.3-2.3,17.4-18.2,14.7c-26.1-4.4-52.1-9.2-78.3-13.2
	c-7.3-1.1-9.4-3.8-7.3-10.5C60.1,351.8,60.8,348.8,61.7,345.2z"/>
<path class="st0" d="M548.6,347.9c0.7,0.9,0.9,1.1,0.9,1.3c4.4,14,4.3,14.2-9.7,16.6c-27.3,4.7-54.6,9.2-81.9,13.8
	c-4.4,0.8-7.5,0.1-8.3-5c-0.5-3.5-1.6-6.8-2.5-11C481.5,358.3,515.2,353,548.6,347.9z"/>
</svg>
