<svg id="Layer_1" data-name="Layer 1" xmlns="http://www.w3.org/2000/svg" xmlns:xlink="http://www.w3.org/1999/xlink" viewBox="0 0 297.46 288.02"><defs><style>.cls-1{fill:none;}.cls-2{clip-path:url(#clip-path);}.cls-3{fill:#939598;}.cls-4{fill:#6d6e71;}</style><clipPath id="clip-path" transform="translate(-1.78 -9.35)"><path class="cls-1" d="M273.1,149.82A122.76,122.76,0,1,0,150.34,272.58,122.77,122.77,0,0,0,273.1,149.82Z"/></clipPath></defs><title>player</title><g class="cls-2"><rect class="cls-3" width="297.46" height="288.02"/><path class="cls-4" d="M154.72,38a7.72,7.72,0,0,0,1.24.17,16.23,16.23,0,0,1,6.64,1.67,5.34,5.34,0,0,1,1.3,1.08c0.57,0.51,1.1,1.07,1.7,1.55a5.16,5.16,0,0,1,1.56,3.5,35,35,0,0,1,.22,4.51c0,1.36,0,2.72,0,4.14l1.37-.37a4.07,4.07,0,0,1-.2,3,7.6,7.6,0,0,0-.69,2.94c-0.16,1-.1,2-1.15,2.59a2.29,2.29,0,0,1-.38.2,2.25,2.25,0,0,0-1.8,2.45c0,1.08.1,2.15,0.18,3.23a0.85,0.85,0,0,0,.28.57c1.24,0,2.06,1.43,3.47.92a2.07,2.07,0,0,1,1.37.3,19.64,19.64,0,0,0,8.71,1.76c1.82,0,3.63-.23,5.39.37,1.23,0.42,2.45.91,3.64,1.43,1.41,0.61,2.82,1.21,4.17,1.94a19.9,19.9,0,0,1,2.51,1.85c0.74,0.58,1.41,1.25,2.19,1.76,4.72,3.07,9.48,6.08,14.18,9.19a22,22,0,0,1,2.75,2.52c0.41,0.38.76,0.83,1.19,1.18,1,0.82,2,1.6,3,2.42a7.93,7.93,0,0,1,2.68,5.43,18.19,18.19,0,0,1-1.41,9.15c-1.31,3.39-2.41,6.86-3.83,10.2-1.26,2.95-2.76,5.8-4.3,8.62-1.23,2.24-2.69,4.35-4,6.54a5.55,5.55,0,0,0-.49,1.33c-0.19.64-.29,1.32-0.52,1.95-0.33.92-.74,1.82-1.13,2.73a13.15,13.15,0,0,1-3.45,4.37,11.8,11.8,0,0,0-3.27,4.17c-0.39,1-.75,2-2.13,1.78a4.19,4.19,0,0,0-.9.24c-0.54.07-1.22,0.36-1.15-.76-0.91.25-1.69,0.49-2.49,0.66a3,3,0,0,1-1.16,0,0.68,0.68,0,0,1-.38-0.54,2.84,2.84,0,0,0-2.22-3.23,1.88,1.88,0,0,1,1.25-2.39,13,13,0,0,0,2.77-2.25,3.27,3.27,0,0,0-3.05,1.16,11.21,11.21,0,0,1-1.67,1.41l-0.29-.07a20.38,20.38,0,0,0-.26-2.46c-0.2-.89.29-1.24,0.82-1.85,1-1.2,2.35-2.37,2.31-4.19a10.45,10.45,0,0,0-.23-1.42c0.74-.14,1.59-0.35,2.45-0.47a11.73,11.73,0,0,0,5.88-2.68c0.88-.72,1.64-1.58,2.45-2.38a2.26,2.26,0,0,0,.49-0.58c1.8-3.86,3.82-7.68,4.57-11.9a92.09,92.09,0,0,1,3.29-12.5c0.26-.79-0.28-1.07-0.67-1.55-1.09.81-2.16,1.59-3.21,2.41a1.52,1.52,0,0,1-1.42.23,9.45,9.45,0,0,1-4.29-2.14c-1.89-1.69-4.22-2.07-6.64-2.24-1.59-.11-3.17-0.32-4.75-0.52a1,1,0,0,0-1.25.74c-2.17,5.92-4.39,11.81-6.61,17.71a12.44,12.44,0,0,1-.85,2,8.13,8.13,0,0,0-1,4.5q0.07,4.57-.07,9.14a17,17,0,0,1-3.54,10.13,15.82,15.82,0,0,1-2,1.86,4.85,4.85,0,0,0-1.64,3.62c0,2.41.1,4.83,0.16,7.25,0.06,2.76.17,5.53,0.13,8.29a9.47,9.47,0,0,1-.65,3.47c-1.79,4.21-3.69,8.36-5.61,12.51a17.21,17.21,0,0,1-1.75,2.72c-1.47,2-2.14,4.43-3.07,6.72-1,2.52-2.21,5-3.39,7.61-1.17-1.32-2-.42-2.79.26s-1.75,1.46-2.58,2.24a6.69,6.69,0,0,0-1.75,2.86,8.48,8.48,0,0,1-2,3.67A20.67,20.67,0,0,1,141.4,212a8.89,8.89,0,0,1-5.81.16,5.47,5.47,0,0,1-3.6-3.91,22.66,22.66,0,0,0-1.16-2.89c-0.25,1.68-1.72,2.16-2.76,3-0.88.72-1.89,1.28-2.75,2-2.79,2.36-6.22,3.11-9.64,3.8a3.36,3.36,0,0,1-2.46-.65c-1.61-1.31-2.69-3-2.11-5.22A25.65,25.65,0,0,1,116.43,198a7.11,7.11,0,0,1,2.7-1.86,10.69,10.69,0,0,0,4.53-3.51c1.22-1.54,2.35-3.16,3.61-4.66,1.48-1.76,3.08-3.42,4.6-5.15a1.57,1.57,0,0,0,.39-0.91c0-1.79,0-3.58,0-5.37l-0.31-.23a6.68,6.68,0,0,0-2,.94,12.08,12.08,0,0,1-4,2.64,12.39,12.39,0,0,0-5.62,4.4c-1.63,2.32-3.46,4.51-5.23,6.81-0.87-.49-1.72-1-2.61-1.43a1.12,1.12,0,0,0-1,0c-2.54,1.88-5.15,3.69-7.53,5.75a44.81,44.81,0,0,1-4.28,3.21c-1.1.74-2,1.87-3.1,2.52A5.33,5.33,0,0,0,94,205.34c-0.47,2.51-1.14,5-1.86,7.43-0.55,1.87-1.28,3.7-2,5.52a4.72,4.72,0,0,1-1,1.54c-1.18,1.19-2.39,2.36-3.66,3.47a14.5,14.5,0,0,0-3.59,5c-2.38,5.16-4.86,10.27-7.3,15.41a1.32,1.32,0,0,0-.17.56c0,1.48,0,3,.16,4.45,0.07,0.8.45,1.57,0.6,2.36s0.19,1.55.28,2.38c-8.57.91-17,1.32-25.76,1.42,1-1.2,1.79-2.24,2.68-3.21a19.46,19.46,0,0,1,2.33-2.14,5.87,5.87,0,0,0,1.55-2.18,36.29,36.29,0,0,1,2.16-3.54,1.15,1.15,0,0,1,.77-0.23,2.6,2.6,0,0,0,.72.09c0.8-.79,1.82-0.55,2.76-0.72a1.3,1.3,0,0,0,1-2.09,4.63,4.63,0,0,1-.1-4.27,44.08,44.08,0,0,0,3.6-12.83,38.11,38.11,0,0,1,4.8-13.46c0.38-.64.53-1.48,1.56-1.4a0.8,0.8,0,0,0,.35-0.31,0.38,0.38,0,0,0,0-.16c1.25-5.22,4.59-9.27,7.58-13.51,1.08-1.53,2.36-2.93,3.44-4.46a34.1,34.1,0,0,0,2.65-4.24c1.31-2.58,2.46-5.25,3.7-7.87a2.59,2.59,0,0,0-.08-2.52c-0.67-1.19-1.32-2.39-2-3.55a0.71,0.71,0,0,1,.06-1c1.57-1.73,3.1-3.49,4.66-5.23a1.25,1.25,0,0,1,.61-0.43,4.39,4.39,0,0,0,2.43-1.73,48.21,48.21,0,0,0,7.19-9.2,20.29,20.29,0,0,1,3.55-5.26c1.64-1.55,3.29-3.07,4.93-4.61q4.71-4.41,9.41-8.82a1,1,0,0,0,.38-0.6,6.52,6.52,0,0,1,2.29-5.29,15.46,15.46,0,0,1,1.78-1.59,2.28,2.28,0,0,1,1.39-.5,0.76,0.76,0,0,0,.93-0.81,4.14,4.14,0,0,0-1-3.57c-2.21-2.73-2.76-5.94-2.64-9.33a19.54,19.54,0,0,0,.17-2.13c-0.18-2.36.73-4.43,1.49-6.58a16.51,16.51,0,0,0,.57-4,2.58,2.58,0,0,0-.68-0.94c-0.23.92-.41,1.57-0.55,2.22-0.58,2.63-2.25,4.63-3.86,6.65a1,1,0,0,1-.57.29,11.49,11.49,0,0,1-1.44.18c-1.32.08-2.38,0.24-2.7,2-0.16.83-1.23,1.48-1.86,2.23a5.41,5.41,0,0,0-1,1.33c-0.5,1.23-.93,2.49-1.31,3.77a8.19,8.19,0,0,1-3,4.21,23.81,23.81,0,0,1-3,2,1.44,1.44,0,0,0-.82,1.34c-0.07,1.76-.11,3.52-0.18,5.28a5.91,5.91,0,0,1-.23,1.93,5.28,5.28,0,0,1-1.26,1.84,12,12,0,0,0-2.25,2.82,12.16,12.16,0,0,1-2.85,2.77c-0.4.33-.79,0-1-0.45a3.16,3.16,0,0,1,.7-3.08c0.4-.56.72-1.18,1.18-1.94a5,5,0,0,0-3,2.47,5.38,5.38,0,0,0-.57,3.85,4,4,0,0,1-.17,1.93,1.11,1.11,0,0,1-.63.58,11.59,11.59,0,0,1-1.48.41,21,21,0,0,0,.33,2.45,1.11,1.11,0,0,1-.57,1.43,1.21,1.21,0,0,1-1.71-.42c-1.07-1.76-2.28-3.45-1.94-5.74a6.25,6.25,0,0,0-.45-2.31c-0.34-1.31.19-2.51,0.39-3.76,0.16-1,.18-2,0.35-3a2,2,0,0,1,.56-1c0.7-.69,1.46-1.33,2.18-2s1.32-1.16,1.92-1.79a3.24,3.24,0,0,0,.57-1,16.89,16.89,0,0,0,.59-1.72c0.34-1.2.69-2.39,0.95-3.6a46.36,46.36,0,0,1,1-5.17,39.63,39.63,0,0,1,2.55-5.57,6.15,6.15,0,0,1,3.3-2.72c1.7-.69,2.76-2,3.94-3.53-1-.34-1.8-0.69-2.68-0.93-0.51-.14-0.85-0.3-0.77-0.89a13.42,13.42,0,0,1,.54-3.59c2.47-5.53,5-11.06,8.66-15.92a34.11,34.11,0,0,1,4.9-4.85c2.76-2.42,5.62-4.73,8.44-7.07a7.52,7.52,0,0,1,5-1.78c1,0,2,0,3-.08s1.36-.34,1.44-1.68c0.94,0.12,1.89.19,2.8,0.38a1.43,1.43,0,0,0,1.49-.32,0.94,0.94,0,0,1,.56-0.35c1.45,0.2,2.39-.88,3.65-1.41l-0.49-4.43a4.11,4.11,0,0,0-.86.2,0.91,0.91,0,0,1-1.44-.64c-0.59-2.33-1.12-4.68-1.63-7a1.78,1.78,0,0,1,.18-0.9A0.83,0.83,0,0,1,143,54a8,8,0,0,0,.78.34,10.27,10.27,0,0,0-.53-1.76,1.63,1.63,0,0,1-.08-1.76,1.09,1.09,0,0,0,.12-0.57,11.35,11.35,0,0,1,1.46-5.63c1.89-3.57,4.69-6.13,9-6.47a8.2,8.2,0,0,0,.83-0.15h0.17Z" transform="translate(-1.78 -9.35)"/><path class="cls-4" d="M155.4,259.09l-1.57-.45a14.58,14.58,0,1,1,6.82.3,2.62,2.62,0,0,0-.41.15H155.4Z" transform="translate(-1.78 -9.35)"/></g></svg>