<svg id="Layer_1" data-name="Layer 1" xmlns="http://www.w3.org/2000/svg" xmlns:xlink="http://www.w3.org/1999/xlink" viewBox="0 0 297.46 288.02"><defs><style>.cls-1{fill:none;}.cls-2{clip-path:url(#clip-path);}.cls-3{fill:#939598;}.cls-4{fill:#e11f27;stroke:#58595b;stroke-miterlimit:10;stroke-width:0.5px;}</style><clipPath id="clip-path" transform="translate(-1.78 -9.35)"><path class="cls-1" d="M273.1,149.82A122.76,122.76,0,1,0,150.34,272.58,122.77,122.77,0,0,0,273.1,149.82Z"/></clipPath></defs><title>redTeam</title><g class="cls-2"><rect class="cls-3" width="297.46" height="288.02"/><path class="cls-4" d="M102.88,129.75c-0.73,2.78-1.46,5.55-2.26,8.64-9.51-1.73-18.84-3.4-28.59-5.17,2.81-10.69,5.1-21.23,8.47-31.4C83.94,91.42,91.4,84.37,102,81a56.31,56.31,0,0,0,21.16-11.76c0.38-.35.83-0.62,1.35-1,5.31,8.67,13.63,13,22.52,16.58a5.76,5.76,0,0,0,4.23,0,149.2,149.2,0,0,0,15.47-8.6c2.84-1.91,5-4.93,7.39-7.42,3.43,2.36,7,5.1,10.86,7.32a45.69,45.69,0,0,0,9.92,4.3c13.11,3.92,20.85,12.87,24.42,25.67,2.43,8.67,4.37,17.49,6.49,26.23a13.62,13.62,0,0,1,.14,1.63c-9.37,1.46-18.66,2.88-28.14,4.34-0.83-3.16-1.6-6-2.32-8.92l-0.62-.1c-0.66,3.23-1.8,6.42-1.84,9.64q-0.21,22.17.17,44.34c0.28,17.69.76,35.42,1.21,53.12a2.65,2.65,0,0,1-2.29,3c-6,1.32-12,3.23-18.11,3.68-12,.87-24,1.21-36,1.11a103.17,103.17,0,0,1-29.59-4.13c-4.09-1.25-4.16-1.28-4.06-5.38,0.45-23,1-46,1.39-69.07,0.14-9.54-.1-19.12-0.38-28.66-0.07-2.5-1-5-1.53-7.42A6.62,6.62,0,0,1,102.88,129.75Z" transform="translate(-1.78 -9.35)"/><path class="cls-4" d="M233.4,132.81c-1.6.24-3,.45-4.61,0.73-1.49-6.11-2.81-12.11-4.48-18-1.84-6.42-3.4-13-6.14-19.08-4.06-9-11.34-14.85-20.75-17.76a55,55,0,0,1-22.27-12.91c-1.08-1-2.19-1.87-3.05.07-2.53,5.76-7.18,9.44-12.49,12.21-12.07,6.24-8.74,6.21-20.85-.07-5.2-2.71-9.78-6.38-12.25-12-0.66-1.53-1.84-1.67-2.95-.56-6.9,7-15.51,10.75-24.6,14.05C86.26,84,79.39,94,76.1,106.72c-2,7.94-3.92,15.92-5.9,23.9-0.17.66-.42,1.32-0.66,2.12-1.42-.24-2.67-0.49-4.23-0.76,0.94-4.09,1.8-8,2.74-11.93,1.49-6.18,2.71-12.45,4.58-18.49,4.3-14,13.88-23.11,27.62-27.44a58.18,58.18,0,0,0,25.5-16,2.59,2.59,0,0,1,3.47-.66c13.43,6.14,26.85,6,40.24-.07a2.45,2.45,0,0,1,3.23.73,59,59,0,0,0,25.5,16c15.09,4.82,24.81,15.2,28.62,30.74C229.06,113.93,231.11,123.13,233.4,132.81ZM129.49,60.64c-0.17.17-.31,0.35-0.49,0.52A47.28,47.28,0,0,0,132.23,67c4.06,5.38,9.85,8.47,15.92,11a3.26,3.26,0,0,0,2.29-.07c5.34-2.22,10.37-4.89,14.4-9.19a14.27,14.27,0,0,0,4.23-8.08C155.68,66.16,142.57,66.16,129.49,60.64Z" transform="translate(-1.78 -9.35)"/><path class="cls-4" d="M64.72,134.54c11.9,2.19,23.52,4.3,35.11,6.38-0.8,6-.8,6-6.31,5.1-9.05-1.53-18.08-3.19-27.16-4.58-2.53-.38-3.26-1.32-2.53-3.64C64.16,136.83,64.41,135.79,64.72,134.54Z" transform="translate(-1.78 -9.35)"/><path class="cls-4" d="M233.64,135.48a1.3,1.3,0,0,1,.31.45c1.53,4.86,1.49,4.93-3.37,5.76-9.47,1.63-18.94,3.19-28.41,4.79-1.53.28-2.6,0-2.88-1.73-0.17-1.21-.56-2.36-0.87-3.82C210.36,139.09,222.05,137.25,233.64,135.48Z" transform="translate(-1.78 -9.35)"/></g></svg>